<svg xmlns="http://www.w3.org/2000/svg" width="77.772" height="87.49" viewBox="0 0 77.772 87.49">
  <g id="icon" transform="translate(-28.433)">
    <path id="Path_254" data-name="Path 254" d="M67.319,135.049c-3.95-7.151-10.156-11.838-18.161-11.838-12.028,0-20.725,10-20.725,22.278,0,14.806,14.739,25.932,27.761,36.86,2.043,1.714,4.155,3.487,6.347,5.352a8.257,8.257,0,0,0,10.681-.035c22.638-19.6,32.982-28.432,32.982-42.178,0-12.268-8.691-22.278-20.725-22.278-8.007,0-14.212,4.69-18.161,11.838Zm0,8.292a5.127,5.127,0,1,1-5.127,5.127A5.133,5.133,0,0,1,67.319,143.341Zm2.548,40.45a3.1,3.1,0,0,1-4,.006c-2.205-1.876-8.614-7.255-9.692-8.163a7.587,7.587,0,0,0,1.705-1.28,7.692,7.692,0,0,0,1.525-8.667,17.978,17.978,0,0,1,16.128.149,7.661,7.661,0,0,0,3.334,10.13C76.142,178.358,73.149,180.95,69.867,183.791ZM85.48,128.338c8.892,0,15.6,7.373,15.6,17.151,0,8.4-5.072,14.939-16.783,25.624-.342.106-2.11,1.413-3.662-.14a2.6,2.6,0,0,1,.12-3.74c10.3-9.358,15.2-15.013,15.2-21.841H90.824c0,4.112-2.921,8.246-11.833,16.5a23.075,23.075,0,0,0-23.072-.157c-7.516-6.669-12.105-11.8-12.105-16.343H38.687c0,6.815,5.65,13.068,15.408,21.565a2.589,2.589,0,0,1,.157,3.771c-1.6,1.6-3.711.1-3.694.1-10.494-9.184-17-16.47-17-25.338,0-9.777,6.706-17.151,15.6-17.151,8.068,0,12.416,6.373,14.408,10.59a10.254,10.254,0,1,0,7.506,0C73.064,134.711,77.412,128.338,85.48,128.338Z" transform="translate(0 -102.154)" fill="#798273"/>
    <path id="Path_255" data-name="Path 255" d="M71.22,0a10.078,10.078,0,0,0-7.278,3.116,10.449,10.449,0,0,0-2.976,7.309,10.254,10.254,0,0,0,20.508,0A10.449,10.449,0,0,0,78.5,3.116,10.078,10.078,0,0,0,71.22,0Zm0,15.552a5.133,5.133,0,0,1-5.127-5.127,5.13,5.13,0,1,1,10.254,0A5.133,5.133,0,0,1,71.22,15.552Z" transform="translate(-26.973)" fill="#798273"/>
    <path id="Path_256" data-name="Path 256" d="M351.474,10.425A10.449,10.449,0,0,0,348.5,3.116a10.056,10.056,0,0,0-14.556,0,10.449,10.449,0,0,0-2.976,7.309,10.254,10.254,0,1,0,20.508,0Zm-15.381,0a5.13,5.13,0,1,1,10.254,0,5.127,5.127,0,1,1-10.254,0Z" transform="translate(-250.829)" fill="#798273"/>
  </g>
</svg>
